<?xml version="1.0" encoding="UTF-8"?>
<!DOCTYPE svg PUBLIC "-//W3C//DTD SVG 1.1//EN" "http://www.w3.org/Graphics/SVG/1.1/DTD/svg11.dtd">
<svg xmlns="http://www.w3.org/2000/svg" version="1.1" width="267px" height="179px" style="shape-rendering:geometricPrecision; text-rendering:geometricPrecision; image-rendering:optimizeQuality; fill-rule:evenodd; clip-rule:evenodd" xmlns:xlink="http://www.w3.org/1999/xlink">
    <g><path style="opacity:1" fill="#508dc2" d="M 119.5,-0.5 C 125.5,-0.5 131.5,-0.5 137.5,-0.5C 162.599,10.3906 170.099,28.7239 160,54.5C 149.516,70.2214 135.016,75.7214 116.5,71C 97.0473,62.4938 89.214,47.6605 93,26.5C 97.3506,12.9836 106.184,3.98363 119.5,-0.5 Z"/></g>
    <g><path style="opacity:0.499" fill="#a5c4df" d="M 77.5,36.5 C 60.5,36.5 43.5,36.5 26.5,36.5C 26.5,38.5 26.5,40.5 26.5,42.5C 25.5318,40.3926 25.1984,38.0593 25.5,35.5C 43.008,35.17 60.3414,35.5033 77.5,36.5 Z"/></g>
    <g><path style="opacity:0.501" fill="#aac7e0" d="M 230.5,40.5 C 230.5,39.1667 230.5,37.8333 230.5,36.5C 213.09,36.1813 195.756,36.5146 178.5,37.5C 195.802,35.5137 213.468,34.847 231.5,35.5C 231.784,37.4147 231.451,39.0813 230.5,40.5 Z"/></g>
    <g><path style="opacity:0.999" fill="#528ec2" d="M 77.5,36.5 C 81.0584,57.1358 92.0584,72.3025 110.5,82C 127.455,88.5938 142.789,85.9271 156.5,74C 167.81,64.2095 175.144,52.0429 178.5,37.5C 195.756,36.5146 213.09,36.1813 230.5,36.5C 230.5,37.8333 230.5,39.1667 230.5,40.5C 229.178,49.1455 225.678,56.8122 220,63.5C 198.587,82.6125 173.42,93.1125 144.5,95C 114.394,97.9827 85.7277,92.9827 58.5,80C 45,73.1667 34.8333,63 28,49.5C 27.023,47.26 26.523,44.9267 26.5,42.5C 26.5,40.5 26.5,38.5 26.5,36.5C 43.5,36.5 60.5,36.5 77.5,36.5 Z"/></g>
    <g><path style="opacity:1" fill="#518dc2" d="M 253.5,150.5 C 253.427,152.027 254.094,153.027 255.5,153.5C 255.427,155.027 256.094,156.027 257.5,156.5C 261.308,162.449 264.308,168.783 266.5,175.5C 266.5,176.5 266.5,177.5 266.5,178.5C 243.167,178.5 219.833,178.5 196.5,178.5C 194.492,169.81 191.492,161.477 187.5,153.5C 187.715,151.821 187.048,150.821 185.5,150.5C 177.959,137.094 168.293,125.427 156.5,115.5C 156.027,114.094 155.027,113.427 153.5,113.5C 134.617,102.839 116.95,104.672 100.5,119C 83.4224,135.318 72.7558,155.151 68.5,178.5C 45.5,178.5 22.5,178.5 -0.5,178.5C -0.5,177.167 -0.5,175.833 -0.5,174.5C 1.39162,168.503 4.05828,162.837 7.5,157.5C 8.90632,157.027 9.57298,156.027 9.5,154.5C 11.7376,149.929 14.7376,145.929 18.5,142.5C 22.7706,139.899 26.4372,136.566 29.5,132.5C 44.3633,119.729 61.3633,110.563 80.5,105C 123.466,92.8487 165.466,95.5154 206.5,113C 225.337,121.685 241.003,134.185 253.5,150.5 Z"/></g>
    <g><path style="opacity:0.612" fill="#a3c2de" d="M 153.5,113.5 C 155.027,113.427 156.027,114.094 156.5,115.5C 154.973,115.573 153.973,114.906 153.5,113.5 Z"/></g>
    <g><path style="opacity:0.91" fill="#8cb1d5" d="M 29.5,132.5 C 26.4372,136.566 22.7706,139.899 18.5,142.5C 21.5628,138.434 25.2294,135.101 29.5,132.5 Z"/></g>
    <g><path style="opacity:0.925" fill="#a7c2df" d="M 185.5,150.5 C 187.048,150.821 187.715,151.821 187.5,153.5C 186.599,152.71 185.932,151.71 185.5,150.5 Z"/></g>
    <g><path style="opacity:0.62" fill="#a3c2de" d="M 253.5,150.5 C 254.906,150.973 255.573,151.973 255.5,153.5C 254.094,153.027 253.427,152.027 253.5,150.5 Z"/></g>
    <g><path style="opacity:0.561" fill="#a7c4df" d="M 255.5,153.5 C 256.906,153.973 257.573,154.973 257.5,156.5C 256.094,156.027 255.427,155.027 255.5,153.5 Z"/></g>
    <g><path style="opacity:0.502" fill="#adc8e1" d="M 9.5,154.5 C 9.57298,156.027 8.90632,157.027 7.5,157.5C 7.42702,155.973 8.09368,154.973 9.5,154.5 Z"/></g>
</svg>
